<?xml version="1.0" encoding="UTF-8"?>
<svg id="Layer_1" xmlns="http://www.w3.org/2000/svg" version="1.1" viewBox="0 0 1147 861">
  <!-- Generator: Adobe Illustrator 30.3.0, SVG Export Plug-In . SVG Version: 2.1.3 Build 182)  -->
  <defs>
    <style>
      .st0 {
        fill: #93bef0;
      }

      .st1 {
        fill: #95bef2;
      }

      .st2 {
        fill: #94bef2;
      }
    </style>
  </defs>
  <path class="st1" d="M865.89,833.67h-93.49c-10.86.02-21.5-11.65-18.65-23.67l1.38-5.82,2.64-6.24,6.42-13.88,1.18-2.55,2.37-5.53,5.43-14.02,1.26-3.8,1.64-5.1.99-3.09,1.16-3.91,1.26-4.69,1.77-7.17,1.45-6.24,1-4.31.98-4.96,1.57-8.5,1.12-7.97,1.21-10.59,1.57-14.63.66-6.13,4.25-.42,9.64-.95,7.98-.89,7.03-.85,33.43-7.8c.42.24,1.82,1.33,2.14,1.79l2.83,4.13,5.43,7.51,4.49,5.63,5.96,7.02,10.34,10.7,4.73,4.17,6,5.08,5.99,4.94,3.95,3.08,5.15,3.96,4.48,3.44c.44.34,1.34,2.13,1.15,2.66l-2.79,7.81-3.69,10.31-1.24,3.8-6.4,20.95-1.93,6.74-1.09,4.05-2.73,10.13-1.23,4.86-1.39,5.58-.99,4-1.39,5.57c-1.32,5.31-2.97,10.13-6.09,14.97-3.43,5.31-13.03,10.83-18.91,10.83Z"/>
  <path class="st2" d="M478.34,755.18l-1.68,5.45-1.19,4.03-.91,2.98-1.68,5.29c-3.46,10.91-9.29,19.17-21.05,21.83-4.09.92-9.65,1.23-13.51-.02l-15.24-4.92-7.84-3.16-48.12-18.74-8.9-3.46c-7.43-2.89-14.53-9.9-16.77-17.9-2.61-9.34.83-20.56,8.21-27.8,5.56-5.45,10.49-10.91,14.38-17.76l2.88-5.06,1.32-2.73,4.46-10.53c5.84-13.77,12.21-27.09,22.16-38.67l6.07-7.06,15.87-16.15,4.75-4.26,16-15.05,22.01-21.85,2.83-3.21,6.52-7.49,4.92-6.05c.26-.32,1.46-1.3,1.66-.94l.97,1.72,4.73,10.2,4.99,11.09,2.17,4.97,3.23,7.56,1.89,4.43,2.89,6.77,2.39,5.59,6.17,14.75,4.36,10.8,1.53,4.16,3.34,9.84,6.21,18.88.97,3.23.88,3.04,1.36,4.71,1.65,5.98,1.75,7.21-2.98,2.09-6.1,3.99-13.65,9.49-5.67,5.2c-3.89,3.57-6.88,7.92-9.4,12.57l-3.14,5.8-1.77,3.58-1.42,3.1-1.92,5.3-2.6,7.2Z"/>
  <path class="st0" d="M973.71,751.31l-1.52-2.36-5.14-7.99-5.02-6.93-4.02-5.01-6.52-7.66-9.41-9.28-6.05-5.22-4.29-3.53-9.71-7.44-4.92-3.96-7.56-6.4-9.53-8.56-6.45-6.5-7.7-8.52-3.92-4.84-5.91-8.22-3.99-6-6.08-9.78c-.31-.5-1.71-1.74-1.86-1.77l-35.42,9.35-6.69,1.12-5.06.82-7,1.01-8.03.94-29.91,1.53-39.99-2.04-5.31-.7-6.09-.99-6.53-1.21-18.29-3.98c-4.09-.89-9.43,4.88-10.12,9.42l-1.46,9.48-.13,16.84,1.34,19.08.77,9.99.58,6.25.98,9.06,1.36,12.67,1.27,12.01.31,3.02.93,11.64.88,11.34,1.82,28.02.22,14.19c.07,4.51-4.59,13.51-9.95,17.56-3.38,2.55-9.23,5.92-13.97,5.93l-97.61.12c-3.75,0-8.73-2.32-11.53-4.32-8.01-5.73-11.33-17.02-8.97-26.57l1.19-4.83,1.31-4.1.95-2.95,1.45-4.53,1.27-4.61,1.19-5.84-.14-32.03-1.09-10.05-1.13-7.96-1.72-9.74-1.13-6.22-1.02-5.04-1.08-4.9-1.88-7.77-.98-4.01-1.07-4.35-1.04-3.89-1.92-6.72-1.55-5.43-1.4-4.84-2.04-6.82-.74-2.22-1.34-3.97-1.45-4.22-2.08-5.89-2.44-6.93-2.33-6.17-8.03-20.13-4.94-12.04-2.43-5.67-7.57-16.67-1.47-3.16-2.57-5.52-1.28-2.71-5.23-10.75-5-9.95-4.96-9.14-3.91-6.14c-7.21-11.33-29.75-20.73-41.83-19.68l-16.08,1.41-10.86.85-18.84.08-13.61-.03c-2.13,0-6.02,2.81-7.49,4.36l-11.77,12.38-8.67,9.36-13.21,12.78-8.48,7.61-5.36,4.49-15.1,10.93-13.6,8.34-9.98,5.36-5.25,2.52c-15.94,7.64-32.58,13.06-50.12,15.72l-8.74,1.33c-24.71,3.75-49.52,2.75-73.77-3.15l-19.86-6.05c-10.12-3.08-19.58-7.71-28.5-13.39l-9.76-6.21-5.3-3.77-6.86-5.14-6.51-5.53-9.45-9.44-6.98-8.1-5.02-6.1-3.26-4.5-3.55-5.57-4.95-8.09-4.04-7.88-4.41-9.91-1.44-3.6-1.31-3.45-1.3-3.64-.98-3.25-1.33-4.66-1.57-5.48-.71-2.87-.79-3.99-1.04-6.4-1.7-12.95c-1.2-9.09-1.18-18.35,0-27.42l1.48-11.29,1.08-5.94,1.29-5.76.9-3.19,1.84-5.88.71-2.26.73-2.26,1.42-3.79,1.36-3.24,2.03-4.36,3.68-7.32,2.87-4.97,1.2-1.98,3.88-6.01,8.54-10.65c9.46-11.8,21.66-20.97,35.21-27.62l5.39-2.65c24.45-12,52.11-14.57,78.81-8.06l5.69,1.39c8.98,2.19,17.51,5.58,25.25,10.59l12.17,7.89,3.87,3.15,10.01,9.99,5.26,6.86,5.61,9.25,1.71,3.21,1.95,3.73,1.13-1.46.41-62.62.87-10.05.83-10.03.77-7.67.38-2.31,1.74-10.99.99-6.08.99-5.21,1.19-4.94,1.41-5.64,1.56-6.23,1.11-3.84,2.3-7.01,1.68-5,3.14-8.16,1.16-2.74,2.76-6.23,4.39-8.91,2.73-5.02,2.95-4.99,3.05-5.07,3.84-5.94,7.21-10.05,4.79-6.12,4.13-4.89c6.31-7.47,12.94-14.35,20.38-20.52l13.78-11.42c21.6-17.89,46.86-29.6,73.61-37.24l19.32-4.76,3.92-.75,6.08-1,5.97-.85,8.36-.94,8.63-.67c11.79-.92,23.2-.89,34.98.19l7.98.73,6.05.7,4.93.71,7.74,1.29,4.94.97,4.21.95,6.22,1.41c.86.2,3.33-.24,4.11-.7l16.84-9.9,10.11-4.92c11.47-5.59,23.61-8.78,36.12-10.88l7.85-1.32,5.16-.71c10.85-1.5,21.64-1.4,32.46.06l6.98.94,6.07,1.05c11.39,1.97,22.41,5.07,33.15,9.75l7.16,3.12,5.03,2.54,10.22,5.94c7.87,4.57,14.47,10.48,21.68,16.27l1.93,1.55,10.65,10.81,5.51,6.56,4.86,6.22,4.08,5.75,6.26,10.02,1.68,3.11,5.15,10.13,1.26,2.7,4.02,10.06.75,1.99,2.32,6.81.68,2.32,1.68,6.19,1.46,5.59,1.28,6.5,1.05,6.36.45,2.44,1.06,10.99.02,24.93-1.19,10.99-1.03,7.05-1.39,7.57-1.45,6.54-.5,2.04-1.28,4.84-3.11,10.09-.75,2-1.19,2.97-3.79,9.3-.94,1.98-3.35,6.77-5.25,9.83-2.96,5.01-4.79,7.23-9,11.87-5.1,6.01-16.45,16.46-22.92,17.13-7.46,4.59-9.38,5.55c-.68.4-2.55,1.61-3.03,2.19l-5.68,6.81-3.3,5.06-4.3,6.63-2.51,3.53-13.02,12.98-6.01,4.04c-19.18,12.91-46.64,14.08-67.76,5.63-12.18-4.88-23.06-12.3-31.74-22.09l-8.06-10.9-2.37-3.39-1.51.49,1.6,9.28c4.16,16.3,12.75,31.26,25.75,41.89l6.14,5.02c8.14,6.65,17.57,11.12,27.9,13.24l3.15.65,5.31.75c6.91.98,14.3,1.05,21.26.03l7.05-1.04c11.33-1.67,21.84-5.95,31.26-12.64l8.14-5.78,15.07-15.14,2.85-3.89,2.92-4.25,2.8-4.26c2.99-4.54,6.02-10.04,10.59-13.11l11.5-7.75,4.13-2.76,13.35-9.74,6.63-5.35,3.73-3.22,13.68-13.4,9.37-10.58,5.28-6.68,2.96-4.05,6.9-10.02,5.85-9.32,6.28-11.62,4.79-10.12,1.99-4.91,1.12-3,1.11-2.99,1.08-3.02.96-2.94,1.21-4.01,1.43-4.72.71-2.39,1.16-5.01,1.17-5.04.9-4.23,1.63-9.5,1.05-7.89,1.09-14.28-.11-21.95-.83-13.02-.94-6.81-1.92-10.84-.96-4.99-1.2-5.31-1.36-5.07-1.37-4.63-1.39-4.53-4.05-11.04-4.12-10.86-.87-2.31,1.69-.46,8.69,1.35,5.31.82,4.95.85,8.14,1.6,3.24.7,4.79,1.14,16.14,4.08,22.06,7.04c24.71,7.89,47.52,19.5,69.48,33.39l6.78,4.29,1.77,1.22,8.82,6.27,6.95,5.05,5.01,3.89,4.98,4.15,7.95,6.92,9.96,9.17,2.99,2.92,12.69,13.36,2.79,3.21,4.5,5.45,5.85,7.28,1.24,1.68,2.96,4.02,4.2,5.78,4.14,5.91,3.96,5.99,8.17,12.99,1.06,1.85,1.74,3.16,7.15,13,1,1.91,2.28,4.51.74,1.53,1.56,3.3,1.59,3.37.96,2.04,1.7,3.63,1.47,3.22,4.98,12.12,3.58,9.62,1.05,2.97.74,2.1.68,2.02,1.74,5.61.71,2.32,2.48,8.17,1.84,6.5.85,3.35.76,3.05.46,1.84,1.09,4.4.78,3.15.78,3.55.6,2.92,1.09,6.14.9,5.17,1.33,7.82.95,6.92.66,6.04.97,9.31.89,13.71.82,27.99-.86,22.06c-.32,8.1-3.69,14.01-7.34,13.12l-3.49-.85c-3.81-.93-5.11-5.58-5.5-9.34l-1.59-15.64-1.09-7.94-1.02-6.36-.62-3.02-1.1-5-.7-2.99-1.62-6.63-1.14-4.66-.49-1.67-3.72-10.25-3.21-7.73-.55-1.26-.77-1.51-1.65-3.23-.98-1.9-.9.66-.58,36.07-1.79,16.76-1.1,8.03-1.05,7.03-.42,2.28-2.39,12.74-1.13,5.93-.83,4.29-1.15,5.94-1.9,9.82-1.15,5.98-.73,4.27-1.18,8.05-1.62,18.98.29,20.07c.29,19.69,5.8,38.25,13.43,56.3l1.07,2.52,5.17,11.16,1.62,3.23,1.41,2.64,2.11,3.95.67,1.22,1.47,2.64,10.37,18.63,1.45,2.58,2.52,4.46,1.08,1.89,3.99,6.87,1.9,3.27,2.93,5.04,1.49,2.52,5.31,8.79,1.16,1.93,6.88,11.84,1.05,2.45,1.4,4.49c.61,1.96,1.32,6,1.08,8.52l-.57,5.95-.74,2.52-1.91,5.17c-.95,2.58-6.85,8.73-9.93,10.82l-10.29,6.98-7.45,4.63-3.05,1.86-13.21,7.84-11.95,7.09-2.49,1.48-3.84,2.27-5.61,3.32-2.51,1.48-1.96,1.15-2.37,1.43-12.06,6.19c-5.16,2.65-12.3,4.9-17.78,3.64l-3.23-.74c-5.07-1.17-9.6-4.13-12.72-8.2l-1.82-2.38-.74-1.18-1.6-3.24-.64-1.63-.73-2.34-1.5-6.16-1.4-5.87-.95-4.02-.7-3.01-.71-3.05-.79-2.92-.8-2.81-1.24-3.9-.43-1.37-.73-2.3-.53-1.66-.5-1.56-.88-2.03-2.8-6.35-4.19-8.64-1.74-3.38-1.34-2.57-.75-1.15ZM428.31,304.73l-3.5-6.54c-3.27-6.11-13.06-11.43-21.9-11.6-13.82-.26-25.62,9.63-28.15,23.21-2.77,14.9,7.08,30.05,22.03,33.53,3.27.76,8.14.82,11.34-.01,9.75-2.53,15.9-8.22,19.95-17,2.73-5.91,2.5-17.34.22-21.59ZM152.4,458.85l8.63,3.95,12.76,7.45,3.19,1.96,16.79,9.07c1.31.71,5.29-.79,5.55-2.19.49-2.66.36-6.99-.25-9.94l-1.4-6.8-1.03-5.01-1.08-5.26-1.2-5.66-1.88-8.15-.58-8.88,10.07-9.52,4.7-4.15,17.61-17.27c.85-.83,1.72-2.89,1.81-3.85.07-.77-1.26-2.66-2.02-2.84l-7.9-1.85-9.84-1.36-6.34-.85-8.67-1.05-10.01-1.04c-4.44-.46-7.22-3.42-8.78-7.09l-1.87-4.39-2.33-5.23-6.64-14.9-5.31-11.1c-.53-1.11-3.4-3.41-4.52-3.22-1.58.26-3.95,3.04-4.58,4.42l-1.83,4-3.94,8.59-1.81,3.95-3.23,7.05-1.77,3.94-3.94,9.18c-1.61,3.75-4.72,5.17-8.73,5.54l-4.05.37-10.01.96-10.11,1.05-15.99,1.86c-1.02.12-3.12,2.34-3.11,3.29.01,1.34.68,4.19,1.57,5.04l11.59,11.02,12.06,11.17c7,6.48,10.45,6.82,8.32,17.11l-1.57,7.57-1.49,7.26-1.03,5.01-1.14,5.91-1.43,7.94c-.32,1.78-.35,5.44-.07,7.28.17,1.1,3.36,3.2,4.39,2.71l6.61-3.09,6.5-3.71,8.19-4.86,15.62-9,5.48-2.39Z"/>
</svg>